<?xml version="1.0" encoding="utf-8"?>
<!-- Generator: Adobe Illustrator 19.0.0, SVG Export Plug-In . SVG Version: 6.00 Build 0)  -->
<svg version="1.1" id="Слой_1" xmlns="http://www.w3.org/2000/svg" xmlns:xlink="http://www.w3.org/1999/xlink" x="0px" y="0px"
	 width="2528.3px" height="1020.9px" viewBox="1464 -146.8 2528.3 1020.9"
	 style="enable-background:new 1464 -146.8 2528.3 1020.9;" xml:space="preserve">
<style type="text/css">
	.st0{fill:#142F5B;}
	.st1{fill:#729ADB;}
</style>
<g id="_x32_">
	<path class="st0" d="M1650.9,687l7.9,11c1.2-0.9,2.5-1.7,3.7-2.6l-6.2-18.8c1.6-3,3-5.9,4.4-8.6c6.9-13.8,10.1-22.3,13.3-30.6
		c3.2-8.3,6.4-16.5,9.5-24.7c-3-6.6-6.1-13.2-12.3-24.2c-6.2-11-15.7-26.4-23.9-39.4c-8.3-13-15.5-23.5-22.8-34
		c0.5-1.3,1-2.7,0.9-5.2c-0.1-2.5-0.9-6.2-0.4-9.3c0.4-3.1,2-5.7,3.6-8.3l-0.4-23.1l11.4,12.5c-1.5,1.7-2.9,3.4-4,5.4
		c-1.1,1.9-1.8,4.2-2.6,6.3h6.2v6.2c2.4-0.7,4.9-1.5,6.8-2.3c1.9-0.8,3.2-1.7,4.1-3.4c0.9-1.7,1.4-4.3,1-6.5c-0.3-2.3-1.6-4.2-2-6.7
		c-0.5-2.5-0.3-5.4-1.3-8.5c-1-3.1-3.2-6.4-5-10.2c-1.8-3.7-3.3-7.9-4.8-12.1c1-3,1.9-6.1,2.2-9.3c0.2-3.2-0.3-6.5-1.2-9.3
		c-0.9-2.8-2.3-5.1-3.6-7.5c0-4,0-8.1-1.2-12c-1.1-3.9-3.5-7.7-6.5-10.2c-3.1-2.5-6.9-3.7-10.3-3.7c-3.5,0-6.7,1.2-9.7,3.3
		c-3.1,2-6,4.8-8.9,7.6c-0.1-3.2-0.2-6.3-0.9-8.7c-0.7-2.3-1.9-3.8-2.6-7.7c-0.7-3.9-1-10.3-1.6-15.8c-0.7-5.5-1.8-10.2-2.9-14.8
		l7.7-2.2c0.9,3,1.7,6.1,2.7,8.3c1,2.2,2.1,3.5,3.4,4c1.3,0.5,3,0,4.1-1c1.1-0.9,1.7-2.3,2.3-3.6c1.6,0.1,3.2,0.2,4.4-0.1
		c1.2-0.3,2.1-1,2.9-1.8c1.1,1.3,2.2,2.5,3.3,2.8c1.1,0.4,2.2-0.1,3-1.3c0.8-1.1,1.3-3,2.5-4.8c1.1-1.8,2.4-2.9,4.2-4.6
		c2.4,0.5,4.1,0.2,5.7-0.4c1.7-0.5,3.3-2,5.8-4.2c2.6-2.2,6.1-5.1,9-7c2.9-1.8,5.1-2.6,6.5-3.6c1.3-1.1,1.8-2.6,1.9-4
		c0.1-1.4-0.1-2.8-1-3.7c-0.9-0.9-2.5-1.4-4.1-1.9c0.9-2.3,1.7-4.6,1.7-6.5c0-1.9-0.8-3.4-1.7-4.8c0.2-2.6,0.2-5.9-1.2-9.4
		c-1.4-3.5-3-6.1-5.1-9.3c10.1,2,19.5,1.3,27.5-0.9c62.3-16.7,24.6-113.3,7.2-155c-22.7-54.4-45.4-92.4-37.3-171
		c-9.2,6.7-19.1,24.5-20.1,45.5c-20.8-75.9-12.5-108.3-5.5-132.4c-20.7,19.5-31.1,55.3-31.6,86.6c-9.9-35.6-11.4-66.7-1-123.2
		c-15.2,17.4-25.7,37.8-33.8,85c-4.7-12.4-9.3-29.1-7-44.4c-24.1,44.1-29.4,109-24.9,148.9c-2.9-1.4-4.2-1.9-8.2-4
		c-6.6,47.7-4.4,98.2,17,148.6c-3.6-0.4-7.5-1.2-12.8-2.2c7.3,30.6,8.5,68.8-11.3,98.5c-14.5,21.8-31.1,45.5-38.1,68.7
		c-10.6,34.7-4.3,72.2,19.9,82.2c-0.8,6.5-0.7,9.4,1.3,17.1s7.1,22.4,10.5,29.9c3.4,7.5,5.3,9.7,9.4,12.1c4,2.4,10.2,5,13.7,6.8
		c3.5,1.8,4.5,2.9,4.8,4.5c0.3,1.6,0,3.7-0.4,5.8l3.3,1.8c-0.6,5.4-1.2,10.7-0.3,16.6c0.8,5.9,3.1,12.2,6.1,17.2
		c2.9,5,6.5,8.5,10.7,11.9c4.2,3.4,9.1,6.5,14,9.7c2.7,4.5,5.4,9,9.1,14c3.7,5,8.5,10.3,12.9,14.7c4.4,4.4,8.4,7.8,11.3,11.8
		c2.9,3.9,4.6,8.3,6.3,12.7c-4.5,6.8-9,13.7-11.9,20.3c-2.9,6.6-4.1,13-5.3,25c-1.1,12-2.3,29.6-4,41.1c-1.8,11.5-4.2,16.9-7.4,23.7
		s-6.9,15-11.8,22.1c-4.8,7.2-10.7,13.3-16.3,21c-5.6,7.8-11,17.2-15.1,25.6c-4.1,8.5-6.9,15.9-9.7,21.2c-2.8,5.3-5.6,8.5-8.6,11.3
		c-2.9,2.7-6,5.1-9,7.4c4.9-2.1,9.8-4.2,15.3-9.2c5.5-5.1,11.6-13.1,16.3-21c4.7-7.8,8-15.4,11.4-21.8c3.4-6.4,7-11.7,10.2-15.5
		c3.1-3.8,6-6.3,8.1-7.1s3.4,0,2.6,3c-0.8,3-3.7,8.1-7,15c-3.3,6.9-7,15.4-10.7,23.8c-3.7,8.4-7.5,16.7-11.8,23.3
		c-4.2,6.6-8.9,11.3-14.9,15.9c-6.1,4.6-13.5,9.2-18.3,13.8c-4.8,4.6-6.8,9.4-8.9,14.2c4.2-4.4,8.3-8.8,13.9-12.5
		c5.6-3.6,12.7-6.6,18.9-9.6c6.2-3.1,11.6-6.2,16.9-11.7c5.2-5.4,10.4-13.1,15.1-21.2c4.7-8.1,9-16.5,13.2-22.7
		c4.2-6.2,8.4-10.3,12.5-14.3c-0.7,7.2-1.5,14.4-3.1,21.4s-4.2,13.7-8.4,21.9c-4.2,8.2-10.1,17.8-15.5,25.4
		c-5.4,7.5-10.5,12.9-15.5,18.3c6.2-3.3,12.5-6.6,18.7-12.1s12.5-13.2,17.4-19.9c5-6.7,8.6-12.5,12.8-17.5c4.2-5,9-9.3,13.8-13.6
		c1.3-8.6,2.7-17.1,5.1-25.9c2.4-8.8,5.8-17.8,9.7-27.8c3.8-10,8.1-20.8,15.6-35.9C1640.2,707.3,1645.7,696.9,1650.9,687L1650.9,687
		z"/>
	<path class="st0" d="M2704.6,595.6c6.9,5.4,11.9,0.6,9.1,14.4c-1.4,7.2-3.5,14.4-5,21.5c-1.3,6.3-2.4,14.5-6.6,20
		c-4.9,6.6-18.5,4.9-12.2,15.8l46.5,0.1c1.7-2.2,2.7-5,2.4-7.9c-5-7.9-11.3-1.7-7.2-18.1c1.9-7.5,8.6-41.6,11.3-45.1
		c5.1-6.9,26.8-13.7,28.4-1.4c0.5,4-0.8,9.1-1.8,12.7c-2.6,10.2-7.7,39-12.1,44.3c-5.2,6.1-15.5,3.9-11.8,15.3l48.2,0.1l1.6-8.9
		c-11.6-9.3-11.4-0.7-6-27.7c5.7-28.6,17.1-53.8-8.7-58.3c-18.5-3.2-28.9,4.9-34.6,5.5l-3.2-6.4c-6.8,1.2-25.2,10.1-32.4,14.1
		C2706.3,588.2,2703.9,590.3,2704.6,595.6L2704.6,595.6z M3618.9,364.9l-10.1,44.9c-1.9,9.4-1.5,13.5-11.8,16.4
		c-33.4,9.5-22.4-32.3-13.4-50.5C3590.4,362.4,3610.5,352.1,3618.9,364.9L3618.9,364.9z M3618.3,313l0.1,3.8
		c3.4,2.4,6.3,1.3,9.4,4.4c0.8,7.5-1.8,17-4.5,27.2c-4.9-0.5-24.7-8-45.8,6c-11.9,7.9-20.6,18.9-25.2,32.8
		c-4.7,14.1-7.7,33.9,4.1,45.6c5.4,5.4,10.9,9.6,19.1,9.9c11.9,0.4,19.3-1.8,25.9-3.3c4.9,1.5-2.4,5,18.4,0.8
		c18.5-3.7,22.8-1.7,21.6-11.8l-9.4-5.1c8-39.6,17.4-78,25.5-117c1.1-5.3,1.8-7.9,1.8-11.9c-4.9,0-9.8-0.5-18.8,4.8
		C3630.8,304.9,3619.3,309.4,3618.3,313L3618.3,313z M2664.5,631.8c-5,12.8-17,30.8-33.3,22.6c-16-8-4.8-53,8.4-66
		c5-4.9,14.4-7.4,21.3-4.1C2673.9,590.4,2669,620.2,2664.5,631.8L2664.5,631.8z M2652.7,569.3c-61.9,7-79.6,101-17.7,100.7
		c24.6-0.1,50.4-19.5,57.9-42.8c8.9-27.4,1.5-56.5-29.8-57.9C2659.9,569.1,2656,568.9,2652.7,569.3L2652.7,569.3z M2045.7,631.8
		c-5.1,12.8-17,30.8-33.3,22.6c-16-8-4.8-53,8.4-66c5-4.9,14.5-7.4,21.3-4.1C2055.2,590.4,2050.2,620.2,2045.7,631.8L2045.7,631.8z
		 M2034,569.3c-61.9,7-79.6,101-17.7,100.7c24.6-0.1,50.4-19.5,57.9-42.8c8.8-27.4,1.5-56.5-29.8-57.9
		C2041.1,569.1,2037.2,568.9,2034,569.3L2034,569.3z M3493.3,371.4c1.5-5.2,6.7-12.5,12.5-13.9c8.2-1.9,14.4,4.8,11.2,13.6
		C3512.3,372,3498.8,371.8,3493.3,371.4L3493.3,371.4z M3540.2,408.8c-2.9-1.4-8.3-3.3-11.3-4.1c-11.3,21.5-46.8,38.2-46.8,6.6
		c0-7,2-19,5.9-23.9c17.3-0.8,49.8,1.1,57.8-2.6c0-10,4-23.8-9.1-33.5c-9.7-7.1-24.3-9.2-35.7-6.4c-24.8,6-41.6,28.7-45.3,53.8
		c-1.4,9.2-1.3,19.9,3.3,28.6c11.6,22.1,43.7,20.1,61.5,7.2C3528.6,428.4,3537.5,418.8,3540.2,408.8L3540.2,408.8z M3183.2,371.4
		c1.5-5.2,6.7-12.5,12.5-13.9c8.2-1.9,14.4,4.8,11.2,13.6C3202.1,372,3188.6,371.8,3183.2,371.4L3183.2,371.4z M3230.1,408.8
		c-3-1.4-8.4-3.3-11.4-4.1c-11.2,21.5-46.7,38.2-46.7,6.6c0-7,2-19,5.9-23.9c17.3-0.8,49.8,1.1,57.8-2.6c0-10,3.9-23.8-9.2-33.5
		c-9.6-7.1-24.3-9.2-35.6-6.4c-24.8,6-41.6,28.7-45.3,53.8c-1.4,9.2-1.3,19.9,3.3,28.6c11.6,22.1,43.7,20.1,61.5,7.2
		C3218.4,428.4,3227.3,418.8,3230.1,408.8L3230.1,408.8z M3978.8,415.5c7.3,0,13.2,5.9,13.2,13.2c0,7.3-5.9,13.2-13.2,13.2
		c-7.3,0-13.2-5.9-13.2-13.2C3965.6,421.5,3971.6,415.5,3978.8,415.5L3978.8,415.5z M2943.7,415.5c7.3,0,13.2,5.9,13.2,13.2
		c0,7.3-5.9,13.2-13.2,13.2c-7.3,0-13.2-5.9-13.2-13.2C2930.5,421.5,2936.4,415.5,2943.7,415.5L2943.7,415.5z M2501.4,371.4
		c1.5-5.2,6.7-12.5,12.5-13.9c8.2-1.9,14.4,4.8,11.2,13.6C2520.4,372,2506.8,371.8,2501.4,371.4L2501.4,371.4z M2548.3,408.8
		c-3-1.4-8.3-3.3-11.4-4.1c-11.2,21.5-46.7,38.2-46.7,6.6c0-7,2-19,5.9-23.9c17.3-0.8,49.8,1.1,57.8-2.6c0-10,3.9-23.8-9.2-33.5
		c-9.6-7.1-24.3-9.2-35.6-6.4c-24.8,6-41.6,28.7-45.3,53.8c-1.4,9.2-1.3,19.9,3.3,28.6c11.6,22.1,43.7,20.1,61.5,7.2
		C2536.6,428.4,2545.5,418.8,2548.3,408.8L2548.3,408.8z M2582.6,525.9c-1.7,1.7-4.3,6.7-4.8,8.9c-3.6,15.8,23.7,17.9,27-1.3
		C2607.3,519.5,2590.5,518,2582.6,525.9L2582.6,525.9z M2554.7,593.4c1.4,3.7,7.1,3.3,8.7,6.7c1.6,3.4-6.3,33.1-7.7,38.6
		c-3,12-6.1,14.6-9.2,16c-6.1,2.7-8,3.6-7.9,12.8h46.5c1.9-2.7,1.2-4.4,2.8-7.2c-12.4-9.8-11.9-4.5-3.1-40c1.3-5.3,11.2-43.8,9.9-46
		c-3.6-6.5-27.1,7-33.1,10C2556.3,586.9,2554.7,586.7,2554.7,593.4L2554.7,593.4z M3953.3,355.7l-0.2-6.9
		c-6.2-4.5-16.3,2.1-22.2,5.8c-6.1,3.7-16.4,6.8-17.3,14.2c2.3,3,5.4,3.7,8.8,4.9c0.7,8.5-7.3,46.2-12.1,52c-4.7,5.7-9,4.1-13.3,8.5
		l-0.3,6.5c3.7,1.6,48.8,3,49.9-0.5l0.6-6c-6.1-6.4-11.4-3.4-8.8-15.9c3.6-17.7,5.4-50.5,27-50.5c7.9,0,13.2,4.8,21,0
		c12.6-7.7,4.5-27.3-15.3-20.1C3965.4,349.9,3958.1,354.9,3953.3,355.7L3953.3,355.7z M2489.1,585.1c3.6,2.6,5.9,1.3,10.1,2.8
		c-2.5,15-14.3,51-14.4,61.9c-0.1,13.7,6.2,17.3,18.2,19.7c5.2,1,12.4,0.5,17.2-1.3c6.8-2.5,6.9-5.8,6.4-12.7
		c-15.8-1.2-20.7,1.3-11-29.8c3.5-11.5,5-23.9,9.3-35c2-5.3-0.1-3.8,21-3.8c1.7-2.5,3.1-9.5,2.1-12.3c-2.4-0.8-15.1-1.2-18.7-1.5
		l6.4-29.5c-3.9-1.4-5.7-1.2-9.6-0.9c-9.3,14.1-13.1,22.1-28.6,31C2492.5,576.7,2488.3,578.3,2489.1,585.1L2489.1,585.1z
		 M2381.7,406.3c-4,0.2-6.8,0.9-9.6,1.8c-0.4,5.4,0.1,25.9,1.6,30.7c5.2,2.6,8.8,0.8,13.6-1.9c6.3,1.7,11.9,5.3,18.6,5.7
		c20.6,1.3,39.7-4.3,48.1-25.3c15.5-39-41.6-33.4-45.6-48.1c0.2-10.7,15.4-13,23.8-10.1c11.5,3.9,11.8,9.8,18.3,18
		c3.2,0.3,7.2-1.3,10.2-2.4c-0.3-9-0.8-21.9-1.5-27.2c-4.5,0-3.7-0.4-7.8,1.1c-4.2,1.5-9.4-0.4-15.7-2.1
		c-20.3-5.5-47.2,4.3-51.5,25.9c-2.1,10.4,1.6,19.6,10.8,24.8c15.6,8.9,34.5,8.7,37.6,17.3c3.7,10.3-14.1,22-33.5,11.8
		C2387.9,420.5,2388.1,414.6,2381.7,406.3L2381.7,406.3z M2065,371.4c1.5-5.2,6.7-12.5,12.5-13.9c8.2-1.9,14.4,4.8,11.2,13.6
		C2083.9,372,2070.4,371.8,2065,371.4L2065,371.4z M2111.9,408.8c-3-1.4-8.4-3.3-11.4-4.1c-11.2,21.5-46.7,38.2-46.7,6.6
		c0-7,2-19,5.8-23.9c17.4-0.8,49.8,1.1,57.8-2.6c0-10,4-23.8-9.2-33.5c-9.6-7.1-24.3-9.2-35.6-6.4c-24.8,6-41.6,28.7-45.3,53.8
		c-1.4,9.2-1.3,19.9,3.3,28.6c11.6,22.1,43.7,20.1,61.5,7.2C2100.2,428.4,2109.1,418.8,2111.9,408.8L2111.9,408.8z M3714.6,356.2
		c6.6,8.7,13.3-0.6,1.5,23c-2.5,5-11.2,22.4-14.8,24.7l-5.9-28c-4.1-19.8,8.2-13.6,10.7-22.8v-4.8c-10.1,0-44.8-1.5-51.6,1.6
		c-0.6,2.3-1.6,3.4-0.9,6.5c4.1,3.3,7,2.8,10.9,7c4.4,4.9,9.4,37.3,10.9,44.7c1.7,8.5,5.6,23.1,3.9,31.7
		c-1.6,7.9-9.8,18.6-18.3,18.8c-4.3-1.2-5.1-5.8-11.6-7c-12.2-2.3-26.5,21.2-0.2,26.1c18.6,3.4,34.8-18.7,43.5-31.6
		c17.9-26.4,31.2-53.7,47.2-80.6c2.3-3.8,10.7-7.8,14.4-8.5l1-8.7c-9.3,0-22.4-0.2-32.2,0C3718.7,348.5,3715.3,350,3714.6,356.2
		L3714.6,356.2z M2342.7,406.1c-5,12.8-17,30.8-33.3,22.6c-16-8-4.7-53,8.4-66c5-4.9,14.4-7.4,21.4-4.1
		C2352.1,364.7,2347.2,394.6,2342.7,406.1L2342.7,406.1z M2330.9,343.6c-61.9,7-79.6,101-17.8,100.7c24.6-0.1,50.4-19.5,57.9-42.8
		c8.9-27.4,1.5-56.5-29.7-57.9C2338.1,343.4,2334.2,343.2,2330.9,343.6L2330.9,343.6z M2085,584.4c-1.1,1.6-1.6,5.3-1.3,7.1l9.4,5.1
		c1.9,1.2-1.4,12.3-2.8,18.8c-4.1,19.1-13.6,42.5,3.4,50.7c15.4,7.5,31.5-2.6,36.8-0.6c3.8,1.4,3.6,3.1,8.6,2.8
		c6.2-0.4,21.5-4.2,29-4.8l1.6-8.1c-9.2-7.1-10.6-4-6.5-21.5c3.3-14.1,5.9-26.7,9.2-40.1c4.2-16.5,5.1-22.1,3.2-23.2
		c-2.8-0.3-36.5,12.5-37.9,15.8l-0.4,5.4c3.4,2.9,7.3,1.9,9.3,5.5c1.5,3.7-6.3,32.5-7.5,38.8c-1.3,6.6-1.9,12.3-9.1,15.1
		c-4.8,1.9-15.4,4-19.2-1.1c-4-5.2,5.3-34.9,10.1-57.7c0.5-2.1,5.6-21.1,2.4-21.9c-1.2-0.3-2.7,0.8-4.9,1.7L2085,584.4z
		 M2446.2,619.2c0,6.2-2.9,21.9-6.6,26.4c-5.2,6.2-18.2,9.5-24.5,4C2408.2,643.5,2414.1,622,2446.2,619.2L2446.2,619.2z
		 M2450.5,604.1c-3.4,1.3-8.5,2.4-12,3.3c-17.3,4.3-41.1,8.8-49.5,27c-9,19.5,1.7,31.6,21,33.8c8,0.9,18.1-2.8,25.2-5.3
		c10.9-3.7,11.5,4.6,23.9,4.5c9.8,0,18.5-1.8,17.6-13.5c-3.9-1.4-6.5-2.3-9.3-5.2c-2.4-4.9,11.8-50.2,11.1-61
		c-2-27.9-63.2-21.5-71,0.7c-3.9,11,3.9,18.3,15.7,11.7c7.5-4.2,9.3-13.4,19.1-17.1c4.7-1.8,11.1-0.2,11.1,5.5
		C2453.4,590.3,2451.2,602.2,2450.5,604.1L2450.5,604.1z M3246.3,370c3.3,2.6,5.8,1.8,9.3,5.2c1.2,10-5,29-7,39.3
		c-1,5.3-3.6,12-8.6,14.7c-5,2.8-14.4,4.5-8.1,12.4l45.5,0.2c2.3-2.7,3.3-4.3,3.2-7.9c-5-7.9-11.3-1.8-7.2-18.1
		c1.8-7,8.5-41.5,11.3-45.1c4.5-6,13-8.2,20.3-7.9c11.4,0.4,7.8,11,6.4,18.5c-1.6,7.9-8.1,39.8-11.9,44.5
		c-5.9,7.5-13.1,2.5-13.1,15.6c2.9,1.1,41.1,0.3,49.2,0.3l1.6-8.9c-4-3.2-10.1-4.3-9.7-10.3l10.7-51.5c3-16.8-6.6-23.3-17.9-24.7
		c-14.1-1.7-24.9,2.8-32.3,6.1l-3.2-6.4c-6.6,1.2-24.8,10.3-32.5,14.1C3247.9,362.4,3245.7,364.7,3246.3,370L3246.3,370z
		 M2191.8,595.6c6.9,5.4,11.9,0.6,9.1,14.4c-1.4,7.2-3.5,14.4-5,21.5c-1.3,6.3-2.4,14.5-6.6,20c-4.9,6.6-18.5,4.9-12.2,15.8
		l46.5,0.1c1.7-2.2,2.7-5,2.4-7.9c-5-7.9-11.3-1.7-7.2-18.1c1.9-7.5,8.6-41.6,11.3-45.1c5.1-6.9,26.8-13.7,28.4-1.4
		c0.5,4-0.8,9.1-1.7,12.7c-2.6,10.2-7.7,39-12.1,44.3c-5.2,6.1-15.5,3.9-11.8,15.3l48.2,0.1l1.6-8.9c-11.6-9.3-11.4-0.7-6-27.7
		c5.7-28.6,17.1-53.8-8.7-58.3c-18.5-3.2-28.9,4.9-34.6,5.5l-3.2-6.4c-6.8,1.2-25.1,10.1-32.4,14.1
		C2193.5,588.2,2191.2,590.3,2191.8,595.6L2191.8,595.6z M2585.2,421.4l10.5-45.2c2.3-9.2,5.6-12.7,13.4-14.8
		c34.6-9.7,17.7,39.8,11.6,50.3c-3.8,6.5-6.7,11-14.2,14C2599.7,428.3,2589.9,427.6,2585.2,421.4L2585.2,421.4z M2604.6,349
		c-6.9-5.3-10.8-5.8-18.1-2.3c-8.9,4.2-25.9,11-27.1,20.8c4.2,2.5,7.5,1.7,9.3,7.6c1.7,5.5-13.6,61.1-15.6,71.3
		c-2.3,11.7-7.6,14.5-11.8,16.3c-5.9,2.4-6.1,3.7-6,11.1c16.7,0,33.4-0.8,50-0.8l1.7-7c-3.6-3.4-9.1-4.7-9.7-10
		c-0.6-4.8,0.8-12.7,3.4-15.9c8.3-0.8,23.7,7.4,46.4-7.6c35.5-23.5,41.6-84.9,1-87.8C2622.4,344.3,2610,346,2604.6,349L2604.6,349z
		 M2355.8,590.6l-10.1,44.9c-1.9,9.4-1.5,13.5-11.8,16.4c-33.4,9.5-22.4-32.3-13.4-50.5C2327.2,588,2347.3,577.8,2355.8,590.6
		L2355.8,590.6z M2355.2,538.6l0.1,3.8c3.4,2.4,6.3,1.3,9.4,4.4c0.8,7.5-1.8,17-4.5,27.2c-4.9-0.5-24.7-8-45.8,6
		c-11.9,7.9-20.6,18.9-25.2,32.8c-4.7,14.1-7.7,33.9,4.1,45.6c5.4,5.4,10.9,9.6,19.1,9.9c11.8,0.4,19.3-1.8,25.9-3.3
		c4.9,1.5-2.5,5,18.4,0.8c18.5-3.7,22.8-1.7,21.6-11.8l-9.4-5.1c8-39.6,17.4-78,25.5-117c1.1-5.3,1.8-7.9,1.8-11.9
		c-4.9,0-9.8-0.5-18.8,4.8C2367.6,530.5,2356.1,535.1,2355.2,538.6L2355.2,538.6z M2667.1,316c3.7,3,5.7,1.6,10.1,6.1
		c1.8,3.7-11.4,54.3-13.3,62c-2.6,10.2-4.7,20.5-7.2,30.6c-4.5,17.7-16.7,15.1-18.5,19.3l-0.2,7.1c4.8,2.2,41.8,0.8,50,0.8l1.7-7.3
		c-4.2-5.5-11.3-4.5-8-17.5c1.9-7.3,3.4-14.8,5.2-22.3c4-17.2,4.6-32,22.8-32.8c11.8-0.4,14,3.3,11.7,14.9
		c-1.7,8.1-7.6,38.3-10.5,44.3c-4,8.1-9,8-14.6,13.6l-0.2,6.9c6.2,0.7,30,0.3,38.9,0.3c10.8,0.1,10.1-1.5,10.3-8
		c-10.3-10-9.9-4.8-4.5-29.7c2.4-11.2,5.8-22,7.6-33.5c5-32.8-30.9-26.2-50.6-20c2.4-16,9.5-42.1,11.3-54.8
		c-9.3-2.3-15.7,1.8-24.2,5.6C2673.5,306.7,2666.1,307.7,2667.1,316L2667.1,316z M2210.3,451.4c-3-2.6-5.5-6.4-8.9-8.9
		c-5.7-4-14.2-2.7-19.5,1c-9,6.2-12.1,29.1,8.9,29c15.8-0.1,28.9,0.7,41.9-8.1c18.8-12.6,23-27.9,28.5-47.2
		c8.7-30.6,17.6-67.7,26.1-99.6c7.2-27,22.7-8.9,22.7-28c-21.8-1.9-45.6-0.8-67.7-0.8c-30.7,0-63.6,10.1-73,43
		c-14.6,51.2,55,52.8,66.1,13.7c3.9-13.7-15.6-21.8-22.7-6.5c-2.7,5.9-0.9,11.4-7,15.6c-5.5,3.7-13.4,2.1-17.6-2
		c-10-10-4.3-43.3,34.8-49.3c9.6-1.5,21.7-2.9,31.3,0.1c7.4,2.3,1.3,20.2-0.5,27.4c-7.7,30.2-19.7,82.7-28.7,109.9
		C2222.9,447.3,2218.4,458.4,2210.3,451.4L2210.3,451.4z M3933.1,289.6c-21.2-1.9-48.7-0.8-70.1-0.8c-21.7,0-37.3,4.4-54.5,17.3
		c-13.4,10-22.9,34.2-16,50.8c8,19.1,33.8,19.6,49.7,9.5c28.5-18.1,13.5-43.4-1.5-33.8c-10,6.4-3.5,17.4-13.2,22.3
		c-25.1,12.8-34.5-38.7,12.4-50.5c11.4-2.8,21.3-2.7,31.9-1.9c13.1,0.9,9.3,9.7,5.6,24.2c-4.8,19-9.4,37.8-14.2,56.7
		c-2.6,10.5-12.1,48.9-15.1,56.5c-14.3,36.5-16-10.5-41.3,2.2c-3.6,1.8-7,5.6-8.1,9.6c-1.4,4.5-1.2,10.4,1.1,14.7
		c6.2,11.3,41.2,7.7,56.7-2.7c23-15.4,28.1-47.8,34.3-72.8c4.8-19,10.1-37.9,14.8-56.9c1.6-6.4,4.9-21.6,8.7-26.8
		C3922.2,296.7,3933.1,304.2,3933.1,289.6L3933.1,289.6z M1850.6,666.9c4,1.8,54.5,0.7,62.7,0.7c0.8-2.6,1.9-5.3,1.5-8.5
		c-4.1-4.1-11.9-3.3-12.7-9.9c-0.4-3,11.6-50.8,13-55.1c0.9-2.6,1.3-3,2.5-3l27.5,1.4c4.2,0.7,7.6-0.4,9.8,4.7
		c1,2.4,1.8,10.3,2.1,13.2h11.3l12.8-51.3c-16.5-1.8-8.7-1.5-16.3,10c-6.3,9.3-33.1,7-45,5.8c1.5-5.1,2.2-9.8,3.2-13.7
		c1.6-6.5,4.8-21.7,9.2-26.2c4.2-4.2,9.3-3.4,15.1-3.4c30.7,0,37.4,6.8,42,14.2c4,6.6,3.6,10.3,10.9,8.6c5.5-1.3,7.1-1.2,5.1-12.9
		c-0.4-2.3-0.9-5-1.6-8.3c-0.9-4.4-3.1-12.8-3.2-17c-32.1,0-63.1-0.8-95.1-0.8c-25.2,0-65.4-5.8-85.6,7.1
		c-39.7,25.2-18,83.9,28.7,69.8c32.6-9.8,19-38.8,2.2-32.5c-10.5,4-14.9,24.7-28.5,12.2c-11-10-6.9-34.9,17.5-41.8
		c13.2-3.8,30.2-3.8,43.9-1.1c6.1,1.3,11.8,0.6,12.1,8.6c0.4,14.7-14.1,70.7-18.6,89.6c-2.9,12.8-6.7,23.5-14.8,27.3
		C1850.2,660.4,1854.2,651.8,1850.6,666.9L1850.6,666.9z M3082,358.9c0.4-6.8,8.1-37.3,10.1-43.3c8.5-25.4,20.7-9.3,20.6-26.1
		c-3-0.3-3.6-0.8-7.2-0.8l-44.3,0c-7.2-0.1-9.5-0.3-11.1,6.2c6.1,7.1,20.1-0.1,10.4,31c-6.8,21.9-20,83.4-29.4,98
		c-4,6.1-8.6,6.5-14.6,9.5l-2.4,8.3c9.1,0.1,54.5,1.1,59.3-0.5c0.8-2.5,1.5-4.7,1.1-7.3c-4.1-4-13.1-3.3-11.5-11.8
		c1.5-7.7,7.8-32.4,11.9-38.1c2.6-3.5,11.1-8.9,15.1-10c4.2,7,12.7,40,15.8,50.3c10.1,34,26.5,59,63.3,68.8c9.8,2.6,18.3,4,28.7,2.4
		c10.8-1.7,26.3-14.6,17.1-26.5c-2.9-3.7-8-5-12.6-3.7c-10.7,3-19.7,30.6-41.6,8.8c-18.5-18.4-29.8-65.8-38.9-93.2l-7.3-26.1
		c8.9-9.1,44.7-44.2,55.9-49.8c11.9-6,17.5-3.4,17.5-15.6c-16.5,0-33.3-0.8-50-0.8l-3.4,7.7c4.7,2.6,8.4,3.2,9.1,8.5
		c-1.3,4.5-50.6,48.4-60.8,54.2C3082,359.5,3082,359.7,3082,358.9L3082,358.9z M2905.5,361.2c0-11.4,6.4-32.6,9.4-44.7
		c2.9-12,7.1-11.8,18.8-11.8c8.9,0,17.7-1.6,24,5c9.4,9.7,3.4,33.5-6,41.9C2941.5,360.9,2919,362.4,2905.5,361.2L2905.5,361.2z
		 M2843.7,433.7l-0.2,7c4.1,1.9,52.8,1.3,60.3,0.7l2.5-10.2c-3.6-1.3-11.1-2.8-13.5-5.2c-4.3-4.2,6.3-42.1,7.9-48.8
		c28.7,0,70.8-3.6,88.1-29.5c11-16.4,8.9-27.5-2.6-42.4c-9-11.5-30.5-14.1-44.5-15.2c-11.9-0.9-34-0.1-53.9,0.1
		c-28.5,0.3-69.3-8.7-89.8,14.4c-13.1,14.7-16.6,37.6-1.8,54.4c14,16,54.4,11.8,59.5-8.3c1.9-7.6-3.8-15.7-11.6-17
		c-17.2-3-19.1,30.2-36.3,11.4c-9.2-10-2.7-31.9,13.4-38.6c15.3-6.3,35.8-3.7,52.1-1.9c10.8,1.2,12.4,7,10.4,16.9
		c-5.4,26.4-16,76.1-23.2,99.1C2856.6,430.9,2849.5,427.8,2843.7,433.7L2843.7,433.7z M1923.4,311c5.2-5.9,16.4-12.4,24.1-10
		c4.6,1.5,3.8,5.1,0.7,7.8C1942.7,313.4,1929.8,314.3,1923.4,311L1923.4,311z M1822.4,331.3c-9.1-5.4-7.8-19.8,5.5-23.9
		c21.5-6.6,47,7.7,54.7,12c-4.5,3.3-23.3,19.1-36.8,46.2c-9.7,19.5-13.8,48-5.6,68.7c7.4,18.7,25,32.8,43.9,39.1
		c37.6,12.5,83.6-3,94.8-43.1c9.7-34.4-11.6-49.6-14.6-52.9c-0.2-1.9,0.3-5,2.6-7.5c3.1-3.4,8.7-6.7,13.3-7.7
		c4.8-1,12.5-2.4,15.7,2.5c3,4.5,0.8,12-0.4,16.8l-12.5,48.5c-3.8,14.9,1.3,11.9,26.4,12c13.9,0.1,12-1.5,12-8.6
		c-9.4-7.6-12.8-4.2-5.6-27.6l9.2-33.5c3.2-19.9-13-29.6-34.7-25.8c-14.6,2.6-8,1.9-17.5,4.2c10.5-22.7,26.6-49.5,57.2-45.9
		c14.3,1.7,17.4,21,35.8,13.1c11.6-5,19.5-28.2-31.7-28.5c-30.1-0.1-66.4,21.5-82.8,46.1c-3.5,5.2-6.8,10.5-9.3,16.5l-6.8,17.7
		c-10.7,0.8-21.2,4.6-30,10.7c-7.1,4.9-15,17-12.4,26.2c2.9,10.6,16,16.7,23.9,7.9c8.4-9.3-7.1-27.2,13.4-25c-2.2,4.6-6,23.7-9,30.2
		c-2.2,4.6-4.7,8.8-9.5,10.6c-5.6,2.1-8.3,6.6-4.5,12c5.7,0.7,43,1.1,46.7-0.4c8.3-4-3.6-13.9-2.5-21c0.5-3.2,5.2-21.5,6.5-23.3
		c8.3,1.3,16.3,52.9-27.7,61.8c-36.1,7.3-51.1-12.4-56.8-44.6c-3.7-20.9,5.1-63.4,22-80.5c10.4-10.5,14.2-5.4,31.6-5.4
		c15.7,0,29.6-4.8,38.6-19.2c6.8-10.7-1.1-23.6-24.4-21.9c-19.5,1.4-26.2,7.4-33.6,11.3c-13.2,0-43.6-26.5-82.4-10
		c-26.6,11.3-34,51.5-1.3,58.2c17.8,3.7,32.9-7.5,29.5-19.8C1849.2,313.5,1827.9,320.2,1822.4,331.3L1822.4,331.3z M3358.3,370
		c3.3,2.6,5.8,1.8,9.3,5.2c1.2,10-5,29-7,39.3c-1,5.3-3.6,12-8.6,14.7c-5,2.8-14.4,4.5-8.1,12.4l45.5,0.2c2.3-2.7,3.3-4.3,3.2-7.9
		c-5-7.9-11.3-1.8-7.2-18.1c1.8-7,8.5-41.5,11.3-45.1c4.5-6,13-8.2,20.3-7.9c11.4,0.4,7.8,11,6.4,18.5c-1.6,7.9-8.1,39.8-11.9,44.5
		c-5.9,7.5-13.1,2.5-13.1,15.6c2.9,1.1,41.1,0.3,49.2,0.3l1.6-8.9c-4-3.2-10.1-4.3-9.6-10.3l10.6-51.5c3-16.8-6.6-23.3-17.9-24.7
		c-14.1-1.7-24.8,2.8-32.3,6.1l-3.2-6.4c-6.6,1.2-24.8,10.3-32.5,14.1C3359.9,362.4,3357.6,364.7,3358.3,370L3358.3,370z"/>
	<path class="st1" d="M1677.6,612.7c-3.7-0.2-8.7,0.1-13.2,0.1c2.5,0.9,4.5,2.6,6,3.7c-0.7,1.4-1.5,2.8-0.9,7.3
		c0.6,4.5,1.9,10.1,3.4,16.8c2.1-4.8,3.6-8.8,5.3-13.2C1678.7,624.4,1681.3,612.9,1677.6,612.7L1677.6,612.7z M1577.8,326.5
		c11.3-0.2,25.2-0.5,36.2,1.6c5.1-5.2,11.7-10.6,21.5-12.3c-9-0.6-14.7,2.6-19.8,4.8c0.5-0.5,0.9-0.9,1.4-1.3
		c2.8-2.6,6.8-8.2,16.9-10.1c-10.5-1-13.4,2.5-21.9,6.9c-6.4,3.3-8.8-2.3-19.7-1.8c6.6,1.7,10.7,6.1,14.5,8.1h-0.2
		C1590.1,320.5,1591.7,318,1577.8,326.5L1577.8,326.5z M1601.2,621.2c-21.8,27.9-18,48.1-19.7,72.2c-1.1,15.6-2.9,27.3-16.1,52.6
		c0.4,3,0.5,4.8,1.3,9.6c10.9-18.6,15.3-31.8,20-52.8c1.7,9.6,2.2,19.1,0.8,33.9c7.2-19.4,8-38.3,9.9-51.9c3.2,15.7,3.9,21.3,3.4,39
		c11.6-32.8,2.4-46.1,12.3-84.4c-6.6,7.5-12,18.9-15.8,33c-2.9-23.2,1.3-38.1,8.5-52.9c1.5-0.6,3-1.1,4.5-1.7
		c10.9,19.5,21.7,39,32.3,58.3c5.4,7.5,10.8,15,16.2,22.5c1.2-0.8,2.9-1.8,4.1-2.6l-14.2-20.4l-81.7-148.1l10.4,7.7
		c-1.6-3.1-3.2-6.1-4.8-9.2c-6.8-4.8-13.6-9.5-20.4-14.3c7.1-4.5,14.1-9.1,21.2-13.6l-0.1,2.6c9.4-0.2,18.8-0.5,28.2-0.7
		c-1.8-1.3-3.7-2.6-8.3-3.3c-3.5-0.6-15.9,0.8-19.4-2.8c-9.4,5.9-18.8,11.8-28.1,17.6l9.6,7.1c5.8,10.6,11.7,21.2,17.7,31.9
		c-9.8-8.6-13.3-14.1-17.3-19.1c-4.3-5.4-9.2-10.3-14.1-15.2c-3.6,1.5-7.2,3-10.8,4.6c-1,25,12.4,35.6,31.1,47.1
		c6.4,10.7,13.1,20,22,28.8C1593.5,606.6,1595.9,607.6,1601.2,621.2L1601.2,621.2z M1534.8,466.5l14.4,31.8l0.2,5.9l14.7-9l-5-2.2
		l-5.3-7l2.4,9l-2.7,1.3l-16.9-31L1534.8,466.5z M1627.2,613.6c8.6-1.1,18.4-1,28.3-0.9c-2.3-15.1-5.9-24.5-11.7-38.5
		c0.5,10,1,20,0.7,25.4c-0.2,5.4-1.2,6.1-2,5.6c-0.7-0.5-1.2-2.4-3.4-8.1c-5.5-14.5-10.4-25.7-19.6-38.3c2.2,9.7,4.4,19.3,5.1,24.3
		c0.8,5,0,5.2-9.8-1.3c-1.3-0.9-2.9-2-4.6-3.2L1627.2,613.6z M1615.5,348.2c-1.4,7.7-6.7,4.3-17.4,5c-0.5-2.6-1.1-9.5-1.6-12.1
		c-1.8,3.5-4.9,10.5-7.6,16.2c-5.9-10.8-20-15.9-30.3-11.4c1.1-1.7,2.4-3.6,3.8-5.7c6.2-8.7,15.9-20.5,27-31.8
		c11-11.2,23.2-21.9,31.8-29.8c8.6-8,13.6-13.2,17.1-17.6c17-21.9,8.7-53.1,1.6-77.2c1.7,21.2,5.2,48.9-3.8,72
		c0.3-18.7-0.6-43.4-6.8-56.9c1.1,21,2.2,45-1.1,64.7c-2-15.1-4.5-27.8-9.9-40.9c2.2,15.7,2.6,33.7-0.2,50.5
		c-1.5-10-4.3-25-8.3-33.2c1.3,13.8,1.1,31.9-2.2,44.6c-1.3-11.6-3.2-21.3-7.7-28.8c0.4,10.2,2.5,22.1-2.5,36.8
		c-1.9-9.5-5-20.4-8.5-27.2c0.1,12.7-0.3,27.3-1.8,39.2c-5.7-7.5-7.9-17.6-8.2-26.2c-3,10.8-3.5,21.5-3.5,37.5
		c-5.6-3.2-8.5-17.2-9.7-25.1c-3.3,9.9-3,21.2-0.1,37.3c-7.4-3.6-10.5-14.5-12.9-25.2c-3.6,11.4-1.3,26.7,3.3,37.3
		c-9.4-2-13.2-12.4-15.7-23.3c-2.2,16,4.2,26.3,9.3,35.1c-8.5,1.3-16.5-11.6-20.7-23c-0.5,17.5,7.1,25.2,14.9,35.4
		c-7.5,1.7-17.8-5.7-25.2-20c4,21.5,14.5,28.5,21.8,33.6c-10.4,0.8-16.9-0.5-27.7-16c2.1,17.6,16.3,25.4,27.2,26.1
		c-9,6.3-23.4,4.7-33.2-8.1c1.8,14.7,19.5,23.7,32.4,17.8c-9.4,13.2-27.8,12.3-36.1-5c-0.8,11.4,8.9,21.5,20.1,21.8
		c13.9,0.4,21.3-6.7,22.1-21.5c1.1-10,3.3-22.9,6.5-32.4c1.3-3.7,2.7-7.3,5.2-11.5c5.4-3.1,13-3.3,17.2-0.1
		c-10,2-12.8,12.1-12.6,19.6c10.4-29.4,42.1-5.7,13,32.5c2.3,7.2,3.4,7.3,0.9,15.6c-2.6,8.3-4.6,10.8-2.8,19.9c2-6,4.1-12,7-18
		c3-6.1,6.9-12.2,9.8-18.1c2.1-4.2,3.8-8.4,5.3-12.5c0-3.8-0.2-6.3-0.7-10.8c-0.5-4.4-1.8-9.9-2.9-14.5c2.5-0.8,5.5-1.8,7.3-2.3
		c0.8,3,1.8,6,2.7,8.2c1,2.2,2.1,3.6,3.5,4c1.3,0.4,3.1-0.1,4.2-1c1.1-0.9,1.7-2.1,2.3-3.5c1.6,0.1,3.2,0.2,4.4-0.1
		c1.2-0.3,2-1,2.9-1.7c1.1,1.2,2.2,2.4,3.3,2.8c1.1,0.3,2.3-0.2,3-1.3c0.8-1.2,1.5-3.3,2.5-4.8c1-1.5,3-3.6,4.1-4.7
		c-1.2-0.5-2-1-3-1.6c-2.2,2.3-3.8,4.8-5.5,7.6c-0.5,0-0.9,0-1.4,0c-0.2-0.7-0.4-1.4-1.5-2.8l-8.5,2l-2.4-5.8
		c7.6,0.6,14,3.3,16.7-2.5c-2.6-1.3-3.3-1.6-5.3-8.2c2-0.5,6.1-0.5,7.8,1.6c3.8,4.5,3.4,6,9,9.3c1.6-0.6,3.3-1.9,5.8-4
		c2.5-2.2,6.1-5.1,8.9-7c2.9-1.8,5.1-2.6,6.5-3.7c1.3-1.1,1.8-2.7,1.9-4.1c0.1-1.4-0.1-2.8-1-3.7c-0.9-0.9-2.5-1.4-4-1.9
		c1.7-4.3,2.6-7.1,0.1-11.4c0.7-7.1-2.5-12.8-6.3-18.5c-9.4-16.5-31.2-18.8-44.3-6.9c16.6-5.9,28.7-4.3,36,12.6
		c6.7,0.9,7.7,6.4,1.7,7.1c9.2,1.5,17.3,11.2,2.8,7.4c-5.1-1.3-12.7-3.8-16.8,0c1.9,0.6,9.9,2.2,11.2,6.2
		c-7.3-0.4-15.9-5.6-18.8,0.1c6.2,1.2,10.1,4.8,18.1,6.2c-2.6,2.4-5.2,4.9-7.1,5.9c-2.9,1.5-7.1-1.5-9.7-3
		C1617.9,341.3,1616.3,344,1615.5,348.2L1615.5,348.2z M1607.3,461.6c-6,4.8-8.3,6.6-11.1,14.9c-1.9-10.7,9-17.7,6.9-29.9
		c-1.8,1.2-3.7,2.4-5.5,3.6c-1.3,17.6-12.7,15.3-18.9,0.5c0.3,9.4,1.5,15.6,4.6,25c-9.8-11.8-16.2-27-19.4-40.5
		c-0.7,7.1,0.5,19.3,3.9,25.5c-7-5.1-11.9-8.3-18.7-13.4c19.8,24.7,45.5,42.9,70.5,62.1c3.4-5.8-0.5-12.3,9.2-16.8
		c-0.1-7.5-0.4-15.5-0.5-23c3.6-7,10.7-4.7,16.9-3c1.3,2.1,2.1,3.6,2.8,6.1c0.8,2.5,0.7,6,1.2,8.5c0.5,2.4,1.7,4.4,2.1,6.7
		c0.3,2.3-0.1,4.8-1.1,6.5c-0.9,1.7-2.3,2.6-4.2,3.4c-1.9,0.8-4.4,1.6-6.9,2.3c0-2.1,0-4.2,0-6.2c-2.1,0-4.2,0-6.3,0
		c1.9-5.8,3.1-7.5,6.7-11.8c-3.8-4.2-7.5-8.3-11.3-12.5c-3.5,7.8-6.2,16.4-9.4,24.7c-4.6-24,9.1-24.3,19.3-43.8
		c3-6.9,4.1-15.9-1.2-23.6C1637.6,446.6,1628,462.8,1607.3,461.6L1607.3,461.6z M1598.8,409.1c-1.9,2-3.4,4.6-5.8,8.6
		c-2.4,4-6.5,10.5-9.5,17.8c5.7-7.5,8.5-9.6,12.2-11.3c-0.1,9.6,4.9,18.1,13.1,20.6c13.4,4.1,25-8.8,26.9-21
		c0.2-6.6-0.3-12.4-4.2-17.6c1.7,4,2,9,0.5,14c-3,9.7-11.8,15.6-19.9,13.1s-11.4-14.4-9.1-22c2.4-7.6,6.8-10.6,9.6-12.1
		C1607.9,400.7,1602,405.3,1598.8,409.1L1598.8,409.1z M1595.6,394.5c-0.1,6.1-11,22-13.8,32.9c5-8.5,10.8-16.6,16.6-24.2
		C1598.4,399.7,1596.7,396.6,1595.6,394.5L1595.6,394.5z M1643.2,330.6c0.1,2.3-0.2,3-1.2,5.2c4.2,0,5.5-1.6,9.5-2.1
		C1650,330.1,1647.3,330.9,1643.2,330.6L1643.2,330.6z M1510.6,341.1c5.7-5.7,3.2-8-0.8-15C1509.6,331.3,1509.2,336,1510.6,341.1
		L1510.6,341.1z M1542.4,408.9c0.6,31.5-40,26.8-41.6,3.3C1511.2,431.3,1531.7,425.3,1542.4,408.9L1542.4,408.9z M1541.3,424.4
		c3.5,26.6-31.4,26.5-35,6.7C1517.2,445.4,1535.7,438.6,1541.3,424.4L1541.3,424.4z M1688.8,297.3c27.8-15.7,25.8-52.8,15.1-91.6
		c8.7,43.5,4.5,90.9-39.4,87.8C1669.8,295.8,1686.3,298.7,1688.8,297.3L1688.8,297.3z M1622.4,279.2c17-8.5,27.5-17.4,32.4-40.2
		c5.3-24.7-3.1-49-12.6-71.5c-8.8-20.9-18-34.9-19.9-58.1c8.6,22.3,18.4,43.7,27.4,65.8c8.7,21.2,14.9,44.2,11.1,67.2
		c-2.6,15.4-11.6,31.1-27.1,36.8C1630,280.6,1625.3,279.6,1622.4,279.2L1622.4,279.2z M1548.6-45.5c1.9,24.6,11.6,56.8,21.5,80.4
		C1554.6,14,1542.7-12.5,1548.6-45.5L1548.6-45.5z M1538.6-7.3c4.4,24.4,14.5,47.5,24.1,69.1C1549.4,44.6,1534.7,26.8,1538.6-7.3
		L1538.6-7.3z M1568.1-76.8c0.7,29.2,5.9,66.9,12.2,94.9C1567.4-11.4,1557.9-38.4,1568.1-76.8L1568.1-76.8z M1534.1,100.9
		c8.7,15.2,16.9,22.2,26.1,33.9C1546.8,127.3,1538.6,124.6,1534.1,100.9L1534.1,100.9z M1530.1,65.7c7,16,18.4,31.7,26.4,44.3
		C1544.2,100.3,1532.3,91.4,1530.1,65.7L1530.1,65.7z M1533.1,38.2c6.5,16.2,18.3,34.4,25.8,47.2
		C1547.1,74.5,1533.9,63.2,1533.1,38.2L1533.1,38.2z M1558.1,210.6c7,14.8,7.1,18.3,6.7,29.7C1557.9,232.9,1552,226.9,1558.1,210.6
		L1558.1,210.6z M1559.9,189.8c10.2,12.8,11,16.2,13.2,27.4C1564.7,211.6,1557.7,207.1,1559.9,189.8L1559.9,189.8z M1562.6,173.6
		c9.7,10.2,10.8,13.1,13.5,22.6C1568.4,192,1562,188.6,1562.6,173.6L1562.6,173.6z M1565.9,143.1c6.9,8.1,10.1,12,17,20.1
		C1574.2,162.4,1566.3,159.9,1565.9,143.1L1565.9,143.1z M1564.1,119.5c6.9,8.1,15.8,18.7,22.8,26.8
		C1576.8,143.5,1565.5,139.6,1564.1,119.5L1564.1,119.5z M1567.7,97.5c6.5,9.9,14.8,22.9,21.2,32.8
		C1580.4,125.7,1567.4,118.5,1567.7,97.5L1567.7,97.5z M1572.1,79.7c5.9,10.8,13.5,24.9,19.4,35.7
		C1582.8,107.2,1570.1,96.5,1572.1,79.7L1572.1,79.7z M1578.8,64.7c5.5,11.8,12.6,27.1,18.1,38.9
		C1588.3,94.5,1575.5,82.4,1578.8,64.7L1578.8,64.7z M1607.5,221.1c1.4-2.7,3.1-5.3,3.3-8c0.8-11.3-12.2-27.9-15.7-43.1
		C1596.1,193.2,1605,202,1607.5,221.1L1607.5,221.1z M1615.4,206.5c1.5-2.9,3.3-5.7,3.6-8.7c0.8-9.9-13.2-29.2-16.9-46.6
		C1603.2,176.2,1612.7,185.7,1615.4,206.5L1615.4,206.5z M1623,191c1.6-3.1,3.4-6.2,3.5-9.3c0.6-10.4-14.8-30.3-19.3-48.5
		C1609.2,159.5,1619.6,169.3,1623,191L1623,191z M1586.9,50.9c4.8,12.1,10.8,27.9,15.6,40C1594.5,81.2,1582.6,68.3,1586.9,50.9
		L1586.9,50.9z M1556,292.4c11.2-8.8,5.2-15.6,0.5-27.4C1555.5,273.7,1554.3,283.6,1556,292.4L1556,292.4z M1569.8,278.4
		c1.7-2.7,3.4-5.4,2.9-10.4c-0.5-5.1-3.3-12.5-6-20c-0.7,6.7-1.3,13.5-0.8,18.5C1566.4,271.6,1568.1,275,1569.8,278.4L1569.8,278.4z
		 M1580.1,265.5c9.8-13.6,3.6-15.8-3.7-32.4C1577.2,243.3,1577.4,255.6,1580.1,265.5L1580.1,265.5z M1591.1,251.2
		c8.9-13.9-0.3-22.3-6.8-37.5C1585.9,227.5,1586.6,237.9,1591.1,251.2L1591.1,251.2z M1599.9,235.1c7.1-14.7-3.3-29-9.4-44.1
		C1592.6,203.5,1594.5,224.1,1599.9,235.1L1599.9,235.1z M1631.3,176.9c1.6-3.2,2.9-5.3,3.1-8.5c0.5-10.7-15.3-31.2-19.9-50
		C1616.5,145.6,1627.7,154.5,1631.3,176.9L1631.3,176.9z M1654.2,289.5c65.7-5.4,35.8-97.4,20-131.9c-6.2-13.5-13.3-29-20.3-45.1
		c-9.5-21.9-21.8-48.2-24.6-72c5.9,20.4,18.9,48.5,27.9,67.8c14.7,31.6,29.8,64.4,38.6,92.3C1707.7,237.8,1705.8,302.7,1654.2,289.5
		L1654.2,289.5z M1644.9,285.3c16.5-0.9,28.2-12.1,34.2-28.5c19.1-52.1-29.3-115.7-43.3-165.9c12.4,25,33.1,68.7,42.2,92.9
		c5.1,13.5,9.7,29.3,10.9,43.4C1691.1,253.8,1679.9,294.5,1644.9,285.3L1644.9,285.3z M1634.5,282.3c36.7-5,37.9-57.3,30.5-85.6
		c-6.6-25-29.6-68-36-97.1c10.6,23.7,30.7,66.2,40.1,95.9c4.2,13.3,7,28.2,6.2,42.6C1674.1,258.7,1661.6,288.1,1634.5,282.3
		L1634.5,282.3z M1543.8,304.5c9.2-7.5,5.9-12,0.6-23.2C1543.5,289.3,1542.3,296.6,1543.8,304.5L1543.8,304.5z M1532.1,314.8
		c8-6.2,4.6-9.3,0.5-18C1531.9,302.9,1530.9,308.6,1532.1,314.8L1532.1,314.8z M1520.2,325.9c6.7-5.2,3.8-7.8,0.4-15
		C1520,316.1,1519.2,320.8,1520.2,325.9L1520.2,325.9z M1483.9,412.3c4.2,3.6,7.3,5.3,12.9,6.8
		C1490.3,424.6,1484.5,418.9,1483.9,412.3L1483.9,412.3z M1481.8,391.4c4.8,6.6,8.7,10.4,15,14.7
		C1489.7,415.4,1481.4,398.6,1481.8,391.4L1481.8,391.4z M1488.4,374.7c2,4,6.2,7.7,9.4,9.8C1493,388,1487.7,383.9,1488.4,374.7
		L1488.4,374.7z M1502.2,364.4c5.4-6,2-8.4-3-14.7C1499.1,355.4,1499.7,359.8,1502.2,364.4L1502.2,364.4z M1489,446.7
		c1.7,11.8,6.8,24.6,11.5,35c3.4,7.5,5.4,9.7,9.5,12.1c4,2.4,10.1,4.9,13.6,6.7c3.5,1.8,4.3,2.8,4.6,4.4c0.3,1.6-0.1,3.7-0.5,5.8
		c1.1,0.6,2.5,1.1,3.6,1.7c3.4-0.6,6.1-1.6,9.5-2.2c4.9-3.4,5.7-4.2,6.4-10.7c-10-2.3-38.3-35.9-47.1-45.8
		c13.4,22.2,24.4,32.7,39.4,48.8C1514.6,492.6,1498.4,463.2,1489,446.7L1489,446.7z"/>
</g>
</svg>
